# xmcd
#
# Track frame offsets:
#	150
#	13830
#	30100
#	50748
#
# Disc length: 791 seconds
#
# Revision: 1
# Processed by: cddbd v1.5PL3 Copyright (c) Steve Scherf et al.
# Submitted via: CDex 1.50Beta5
#
DISCID=27031504
DTITLE=ドレミ團 - 眞色ドレミ手帖
DYEAR=1900
DGENRE=Rock
TTITLE0=天道虫の円舞曲
TTITLE1=パロルの日記
TTITLE2=雨音伝送路
TTITLE3=哀しき脈拍
EXTD=
EXTT0=
EXTT1=
EXTT2=
EXTT3=
PLAYORDER=
